<svg width="56" height="56" viewBox="0 0 56 56" fill="none" xmlns="http://www.w3.org/2000/svg">
<path d="M28 0C43.464 0 56 12.536 56 28C56 43.464 43.464 56 28 56C12.536 56 0 43.464 0 28C0 12.536 12.536 0 28 0ZM28 1.12012C13.1546 1.12012 1.12012 13.1546 1.12012 28C1.12012 42.8454 13.1546 54.8799 28 54.8799C42.8454 54.8799 54.8799 42.8454 54.8799 28C54.8799 13.1546 42.8454 1.12012 28 1.12012ZM43.1201 27.9932L43.1133 28L43.1201 28.0068L34.7334 36.4004L33.249 34.9141L39.0996 29.0576H14.2803V26.9561H39.1133L33.249 21.0859L34.7334 19.5996L43.1201 27.9932Z" fill="white"/>
</svg>
